/* XPM */
static char *bat_1_xpm[] = {
"24 16 3 1",
"  c None",
"w c #b58900",
". c #839496",
"                        ",
" wwwwwwwwwwwwwwwwwwww   ",
" w                  w   ",
" w                  w   ",
" w                  www ",
" w    .........       w ",
" w   .........        w ",
" w        ...         w ",
" w       ...          w ",
" w      .........     w ",
" w     .........      w ",
" w                  www ",
" w                  w   ",
" w                  w   ",
" wwwwwwwwwwwwwwwwwwww   ",
"                        ",
};
