/* XPM */
static char *cpu_xpm[] = {
"16 16 2 1",
"  c None",
"w c #b58900",
"                ",
"    w w  w w    ",
"    w w  w w    ",
"   wwwwwwwwww   ",
" www        www ",
"   w        w   ",
" www  w  w  www ",
"   w        w   ",
"   w        w   ",
" www  w  w  www ",
"   w        w   ",
" www        www ",
"   wwwwwwwwww   ",
"    w w  w w    ",
"    w w  w w    ",
"                ",
};
